<svg xmlns="http://www.w3.org/2000/svg" width="860" height="348" viewBox="0 0 860 348" role="img" aria-label="GradLink progress by phase">
<style>text{font-family:-apple-system,BlinkMacSystemFont,"Segoe UI",Helvetica,Arial,sans-serif;fill:#E7F0F7}.l{font-size:13.5px;font-weight:600}.n{font-size:12px;fill:#8697AA;font-variant-numeric:tabular-nums}.c{font-size:11px;font-weight:700;letter-spacing:.04em}.h{font-size:18px;font-weight:700}</style>
<rect width="860" height="348" rx="12" fill="#0C1826"/>
<text x="40" y="40" class="h">Progress by phase</text>
<text x="40" y="84" class="l">Phase 1: Core loop</text><rect x="300" y="69" width="84" height="20" rx="3" fill="none" stroke="#35D3FF"/><text x="342" y="83" text-anchor="middle" class="c" fill="#35D3FF" style="fill:#35D3FF">Ongoing</text><rect x="400" y="73" width="300" height="12" rx="2" fill="#1A2A3C"/><rect x="400.0" y="73" width="281.3" height="12" fill="#00C2A8"/><rect x="681.3" y="73" width="18.8" height="12" fill="#F7C948"/><text x="714" y="84" class="n">15/16 done, 1 left</text><text x="40" y="128" class="l">Phase 2: Dead and misleading UI</text><rect x="300" y="113" width="84" height="20" rx="3" fill="none" stroke="#35D3FF"/><text x="342" y="127" text-anchor="middle" class="c" fill="#35D3FF" style="fill:#35D3FF">Ongoing</text><rect x="400" y="117" width="300" height="12" rx="2" fill="#1A2A3C"/><rect x="400.0" y="117" width="192.9" height="12" fill="#00C2A8"/><rect x="592.9" y="117" width="21.4" height="12" fill="#F7C948"/><rect x="614.3" y="117" width="64.3" height="12" fill="#FF6B6B"/><rect x="678.6" y="117" width="21.4" height="12" fill="#8A9BAE"/><text x="714" y="128" class="n">9/14 done, 5 left</text><text x="40" y="172" class="l">Phase 3: Launch readiness</text><rect x="300" y="157" width="84" height="20" rx="3" fill="none" stroke="#35D3FF"/><text x="342" y="171" text-anchor="middle" class="c" fill="#35D3FF" style="fill:#35D3FF">Ongoing</text><rect x="400" y="161" width="300" height="12" rx="2" fill="#1A2A3C"/><rect x="400.0" y="161" width="195.7" height="12" fill="#00C2A8"/><rect x="595.7" y="161" width="97.8" height="12" fill="#F7C948"/><rect x="693.5" y="161" width="6.5" height="12" fill="#8A9BAE"/><text x="714" y="172" class="n">30/46 done, 16 left</text><text x="40" y="216" class="l">Phase 4: Polish and SEO</text><rect x="300" y="201" width="84" height="20" rx="3" fill="none" stroke="#35D3FF"/><text x="342" y="215" text-anchor="middle" class="c" fill="#35D3FF" style="fill:#35D3FF">Ongoing</text><rect x="400" y="205" width="300" height="12" rx="2" fill="#1A2A3C"/><rect x="400.0" y="205" width="60.0" height="12" fill="#00C2A8"/><rect x="460.0" y="205" width="240.0" height="12" fill="#FF6B6B"/><text x="714" y="216" class="n">1/5 done, 4 left</text><text x="40" y="260" class="l">Phase 5: Product build-out</text><rect x="300" y="245" width="84" height="20" rx="3" fill="none" stroke="#35D3FF"/><text x="342" y="259" text-anchor="middle" class="c" fill="#35D3FF" style="fill:#35D3FF">Ongoing</text><rect x="400" y="249" width="300" height="12" rx="2" fill="#1A2A3C"/><rect x="400.0" y="249" width="237.5" height="12" fill="#00C2A8"/><rect x="637.5" y="249" width="12.5" height="12" fill="#F7C948"/><rect x="650.0" y="249" width="37.5" height="12" fill="#FF6B6B"/><rect x="687.5" y="249" width="12.5" height="12" fill="#5AA9F0"/><text x="714" y="260" class="n">38/48 done, 10 left</text><text x="40" y="304" class="l">Test pass</text><rect x="300" y="289" width="84" height="20" rx="3" fill="none" stroke="#35D3FF"/><text x="342" y="303" text-anchor="middle" class="c" fill="#35D3FF" style="fill:#35D3FF">Ongoing</text><rect x="400" y="293" width="300" height="12" rx="2" fill="#1A2A3C"/><rect x="400.0" y="293" width="225.0" height="12" fill="#00C2A8"/><rect x="625.0" y="293" width="75.0" height="12" fill="#5AA9F0"/><text x="714" y="304" class="n">6/8 done, 2 left</text>
</svg>
