<svg xmlns="http://www.w3.org/2000/svg" width="860" height="404" viewBox="0 0 860 404" role="img" aria-label="GradLink launch progress: 72% done">
<style>text{font-family:-apple-system,BlinkMacSystemFont,"Segoe UI",Helvetica,Arial,sans-serif;fill:#E7F0F7}.l{font-size:13px;fill:#B9C8D6}.n{font-size:12px;fill:#8697AA;font-variant-numeric:tabular-nums}.g{font-size:11.5px;fill:#B9C8D6}.h{font-size:18px;font-weight:700}.s{font-size:12px;fill:#8697AA}</style>
<rect width="860" height="404" rx="12" fill="#0C1826"/>
<text x="40" y="38" class="h">GradLink launch board</text>
<text x="820" y="38" text-anchor="end" class="s">99 of 137 done · 38 left</text>
<circle cx="130" cy="130" r="62" fill="none" stroke="#1A2A3C" stroke-width="14"/>
<circle cx="130" cy="130" r="62" fill="none" stroke="#00C2A8" stroke-width="14" stroke-dasharray="389.56" stroke-dashoffset="109.08" transform="rotate(-90 130 130)"/>
<text x="130" y="134" text-anchor="middle" style="font-size:30px;font-weight:700">72%</text>
<text x="130" y="154" text-anchor="middle" class="s">done</text>
<text x="316" y="86" text-anchor="end" class="l">Launch</text><rect x="330" y="76" width="400" height="12" rx="2" fill="#1A2A3C"/><rect x="330.0" y="76" width="285.7" height="12" fill="#00C2A8"/><rect x="615.7" y="76" width="114.3" height="12" fill="#F7C948"/><text x="742" y="86" class="n">10/14</text><text x="316" y="116" text-anchor="end" class="l">Landing page</text><rect x="330" y="106" width="400" height="12" rx="2" fill="#1A2A3C"/><rect x="330.0" y="106" width="333.3" height="12" fill="#00C2A8"/><rect x="663.3" y="106" width="44.4" height="12" fill="#5AA9F0"/><rect x="707.8" y="106" width="22.2" height="12" fill="#8A9BAE"/><text x="742" y="116" class="n">15/18</text><text x="316" y="146" text-anchor="end" class="l">Core loop</text><rect x="330" y="136" width="400" height="12" rx="2" fill="#1A2A3C"/><rect x="330.0" y="136" width="366.7" height="12" fill="#00C2A8"/><rect x="696.7" y="136" width="33.3" height="12" fill="#F7C948"/><text x="742" y="146" class="n">11/12</text><text x="316" y="176" text-anchor="end" class="l">Organiser access</text><rect x="330" y="166" width="400" height="12" rx="2" fill="#1A2A3C"/><rect x="330.0" y="166" width="311.1" height="12" fill="#00C2A8"/><rect x="641.1" y="166" width="88.9" height="12" fill="#F7C948"/><text x="742" y="176" class="n">7/9</text><text x="316" y="206" text-anchor="end" class="l">Dashboard</text><rect x="330" y="196" width="400" height="12" rx="2" fill="#1A2A3C"/><rect x="330.0" y="196" width="338.5" height="12" fill="#00C2A8"/><rect x="668.5" y="196" width="30.8" height="12" fill="#F7C948"/><rect x="699.2" y="196" width="30.8" height="12" fill="#8A9BAE"/><text x="742" y="206" class="n">11/13</text><text x="316" y="236" text-anchor="end" class="l">Audit follow-ups</text><rect x="330" y="226" width="400" height="12" rx="2" fill="#1A2A3C"/><rect x="330.0" y="226" width="400.0" height="12" fill="#FF6B6B"/><text x="742" y="236" class="n">0/7</text><text x="316" y="266" text-anchor="end" class="l">Student dashboard</text><rect x="330" y="256" width="400" height="12" rx="2" fill="#1A2A3C"/><rect x="330.0" y="256" width="375.8" height="12" fill="#00C2A8"/><rect x="705.8" y="256" width="24.2" height="12" fill="#5AA9F0"/><text x="742" y="266" class="n">31/33</text><text x="316" y="296" text-anchor="end" class="l">Security</text><rect x="330" y="286" width="400" height="12" rx="2" fill="#1A2A3C"/><rect x="330.0" y="286" width="240.0" height="12" fill="#00C2A8"/><rect x="570.0" y="286" width="160.0" height="12" fill="#F7C948"/><text x="742" y="296" class="n">12/20</text><text x="316" y="326" text-anchor="end" class="l">Features to build</text><rect x="330" y="316" width="400" height="12" rx="2" fill="#1A2A3C"/><rect x="330.0" y="316" width="72.7" height="12" fill="#00C2A8"/><rect x="402.7" y="316" width="109.1" height="12" fill="#F7C948"/><rect x="511.8" y="316" width="218.2" height="12" fill="#FF6B6B"/><text x="742" y="326" class="n">2/11</text>
<rect x="40" y="374" width="10" height="10" rx="2" fill="#00C2A8"/><text x="55" y="383" class="g">Done 99</text><rect x="112.19999999999999" y="374" width="10" height="10" rx="2" fill="#35D3FF"/><text x="127.19999999999999" y="383" class="g">In progress 0</text><rect x="224" y="374" width="10" height="10" rx="2" fill="#F7C948"/><text x="239" y="383" class="g">Needs the owner 19</text><rect x="368.8" y="374" width="10" height="10" rx="2" fill="#FF6B6B"/><text x="383.8" y="383" class="g">To do 13</text><rect x="447.6" y="374" width="10" height="10" rx="2" fill="#5AA9F0"/><text x="462.6" y="383" class="g">Verify live 4</text><rect x="559.4" y="374" width="10" height="10" rx="2" fill="#8A9BAE"/><text x="574.4" y="383" class="g">Parked by decision 2</text>
</svg>
